<svg version="1.1" xmlns="http://www.w3.org/2000/svg" xmlns:xlink="http://www.w3.org/1999/xlink" width="24px" height="24px" viewBox="0,0,256,256"><g fill="#c60072" fill-rule="nonzero" stroke="none" stroke-width="1" stroke-linecap="butt" stroke-linejoin="miter" stroke-miterlimit="10" stroke-dasharray="" stroke-dashoffset="0" font-family="none" font-weight="none" font-size="none" text-anchor="none" style="mix-blend-mode: normal"><g transform="translate(5.33333,245.33333) scale(0.26667,0.26667)"><path d="M240,-840h440v520l-280,280l-50,-50c-4.66667,-4.66667 -8.5,-11 -11.5,-19c-3,-8 -4.5,-15.66667 -4.5,-23v-14l44,-174h-258c-21.33333,0 -40,-8 -56,-24c-16,-16 -24,-34.66667 -24,-56v-80c0,-4.66667 0.66667,-9.66667 2,-15c1.33333,-5.33333 2.66667,-10.33333 4,-15l120,-282c6,-13.33333 16,-24.66667 30,-34c14,-9.33333 28.66667,-14 44,-14zM600,-760h-360l-120,280v80h360l-54,220l174,-174zM600,-354v-406zM680,-320v-80h120v-360h-120v-80h200v520z"></path></g></g></svg>