<svg version="1.1" xmlns="http://www.w3.org/2000/svg" xmlns:xlink="http://www.w3.org/1999/xlink" width="24px" height="24px" viewBox="0,0,256,256"><g fill="#c60072" fill-rule="nonzero" stroke="none" stroke-width="1" stroke-linecap="butt" stroke-linejoin="miter" stroke-miterlimit="10" stroke-dasharray="" stroke-dashoffset="0" font-family="none" font-weight="none" font-size="none" text-anchor="none" style="mix-blend-mode: normal"><g transform="translate(-5.33333,266.66667) scale(0.26667,0.26667)"><path d="M720,-120h-440v-520l280,-280l50,50c4.66667,4.66667 8.5,11 11.5,19c3,8 4.5,15.66667 4.5,23v14l-44,174h258c21.33333,0 40,8 56,24c16,16 24,34.66667 24,56v80c0,4.66667 -0.66667,9.66667 -2,15c-1.33333,5.33333 -2.66667,10.33333 -4,15l-120,282c-6,13.33333 -16,24.66667 -30,34c-14,9.33333 -28.66667,14 -44,14zM360,-200h360l120,-280v-80h-360l54,-220l-174,174zM360,-606v406zM280,-640v80h-120v360h120v80h-200v-520z"></path></g></g></svg>